<svg width="45" height="49" viewBox="0 0 45 49" fill="none" xmlns="http://www.w3.org/2000/svg">
<mask id="mask0_15_1584" style="mask-type:luminance" maskUnits="userSpaceOnUse" x="0" y="0" width="45" height="49">
<path d="M44.854 0.114746H0.332764V48.639H44.854V0.114746Z" fill="white"/>
</mask>
<g mask="url(#mask0_15_1584)">
<path d="M25.2264 42.9303C25.2264 39.7775 22.6544 37.2216 19.4817 37.2216C16.3091 37.2216 13.7371 39.7775 13.7371 42.9303C13.7371 46.0831 16.3091 48.639 19.4817 48.639C22.6544 48.639 25.2264 46.0831 25.2264 42.9303Z" fill="#5551FF"/>
<path d="M3.24617 5.93677C3.18966 6.64812 3.57273 7.87122 3.57273 7.87122L5.2208 10.3865L8.09338 14.2957L13.9341 22.5229C13.3161 15.7936 14.8404 14.2719 16.2766 14.2719L16.6089 6.98489C16.6089 6.98489 8.58723 5.98296 3.24617 5.93677Z" fill="#5551FF"/>
<path fill-rule="evenodd" clip-rule="evenodd" d="M44.0501 9.13726C43.8031 12.2476 41.0915 14.5782 37.9701 14.3861L8.09338 14.2957L5.2208 10.3866L3.57273 7.87125C3.57273 7.87125 3.18966 6.64815 3.24617 5.9368C3.41567 3.80263 5.12065 2.83235 7.34326 2.92193L37.6844 3.01368C38.0416 3.01368 38.3913 3.01368 38.7752 2.99703C41.9381 3.24511 44.2998 5.99422 44.0501 9.13726Z" fill="#5551FF"/>
<path d="M15.6365 14.3935C15.5251 14.4202 15.7756 14.3436 15.6365 14.3935C15.5131 14.4261 15.7598 14.3514 15.6365 14.3935C14.6811 14.7364 13.3959 16.6495 13.9353 22.5234C13.9353 22.5234 8.21488 15.6149 15.6365 14.3935Z" fill="#B3B1FF"/>
<path d="M15.6673 23.5294C15.6108 24.2408 15.994 25.4638 15.994 25.4638L17.6422 27.979L20.515 31.8881L25.5146 38.6174C25.1329 32.1116 27.0478 31.8881 28.4466 31.9278L29.0301 24.5768C29.0301 24.5768 21.0084 23.5753 15.6673 23.5294Z" fill="#5551FF"/>
<path fill-rule="evenodd" clip-rule="evenodd" d="M38.2233 26.7291C37.9764 29.8394 35.265 32.1702 32.1436 31.9782L20.515 31.8882L17.6422 27.9791L15.994 25.4639C15.994 25.4639 15.6108 24.2409 15.6673 23.5295C15.8367 21.3954 17.5417 20.425 19.7643 20.5144L32.3345 20.6433C32.7083 20.6433 32.5953 20.6433 32.9482 20.6433C36.1111 20.8912 38.4728 23.5861 38.2233 26.7291Z" fill="#5551FF"/>
<path d="M28.2081 31.9091C28.0054 32.1117 25.1624 30.9545 25.5146 38.6175C25.5146 38.6175 20.296 31.7661 28.2081 31.9091Z" fill="#B3B1FF"/>
</g>
</svg>
