<svg width="154" height="49" viewBox="0 0 154 49" fill="none" xmlns="http://www.w3.org/2000/svg">
<path d="M65.846 22V9.40002H73.964V11.848H68.69V14.26H73.406V16.708H68.69V22H65.846ZM75.1804 22V9.40002H78.0244V22H75.1804ZM79.7327 22V9.40002H82.5767L87.9587 17.338V9.40002H90.8027V22H87.9587L82.5767 14.098V22H79.7327ZM92.4944 22V9.40002H97.0844C98.5964 9.40002 99.8264 9.67602 100.774 10.228C101.734 10.768 102.436 11.512 102.88 12.46C103.324 13.396 103.546 14.47 103.546 15.682C103.546 17.062 103.282 18.226 102.754 19.174C102.238 20.11 101.494 20.818 100.522 21.298C99.5624 21.766 98.4164 22 97.0844 22H92.4944ZM95.3384 19.534H96.9404C97.9244 19.534 98.6804 19.372 99.2084 19.048C99.7484 18.724 100.12 18.274 100.324 17.698C100.54 17.122 100.648 16.45 100.648 15.682C100.648 14.326 100.336 13.348 99.7124 12.748C99.1004 12.136 98.1764 11.83 96.9404 11.83H95.3384V19.534ZM108.666 22V9.40002H112.05L115.128 17.122L118.116 9.40002H121.5V22H118.656V14.422L116.226 20.524H113.94L111.51 14.404V22H108.666ZM126.534 22V16.762L122.214 9.40002H125.436L127.974 13.882L130.494 9.40002H133.662L129.36 16.762V22H126.534ZM70.346 39.216C69.458 39.216 68.648 39.072 67.916 38.784C67.196 38.484 66.614 38.04 66.17 37.452C65.738 36.852 65.504 36.096 65.468 35.184H68.456C68.504 35.604 68.672 35.982 68.96 36.318C69.26 36.654 69.71 36.822 70.31 36.822C70.826 36.822 71.21 36.708 71.462 36.48C71.726 36.252 71.858 35.952 71.858 35.58C71.858 35.412 71.828 35.256 71.768 35.112C71.72 34.968 71.618 34.83 71.462 34.698C71.306 34.554 71.066 34.41 70.742 34.266C70.43 34.122 70.01 33.966 69.482 33.798C68.498 33.486 67.73 33.12 67.178 32.7C66.626 32.28 66.236 31.83 66.008 31.35C65.792 30.87 65.684 30.378 65.684 29.874C65.696 29.058 65.9 28.38 66.296 27.84C66.692 27.288 67.22 26.874 67.88 26.598C68.54 26.322 69.278 26.184 70.094 26.184C70.91 26.184 71.654 26.328 72.326 26.616C73.01 26.892 73.562 27.306 73.982 27.858C74.402 28.41 74.618 29.094 74.63 29.91H71.57C71.558 29.586 71.42 29.28 71.156 28.992C70.892 28.704 70.502 28.56 69.986 28.56C69.614 28.572 69.296 28.68 69.032 28.884C68.78 29.076 68.654 29.352 68.654 29.712C68.654 30.024 68.786 30.294 69.05 30.522C69.314 30.75 69.686 30.96 70.166 31.152C70.658 31.344 71.228 31.548 71.876 31.764C72.368 31.932 72.8 32.13 73.172 32.358C73.556 32.574 73.874 32.832 74.126 33.132C74.378 33.42 74.57 33.75 74.702 34.122C74.834 34.494 74.9 34.914 74.9 35.382C74.9 36.15 74.702 36.822 74.306 37.398C73.922 37.974 73.388 38.424 72.704 38.748C72.02 39.06 71.234 39.216 70.346 39.216ZM78.8874 39V28.848H75.2694V26.4H85.3494V28.848H81.7134V39H78.8874ZM86.3948 39V26.4H91.2008C92.0648 26.4 92.8268 26.55 93.4868 26.85C94.1468 27.15 94.6628 27.582 95.0348 28.146C95.4068 28.698 95.5928 29.358 95.5928 30.126C95.5928 30.966 95.3648 31.668 94.9088 32.232C94.4528 32.796 93.8228 33.198 93.0188 33.438L96.4568 39H93.1808L90.1748 33.87H89.2388V39H86.3948ZM89.2388 31.458H91.1468C91.5908 31.458 91.9208 31.392 92.1368 31.26C92.3648 31.116 92.5208 30.942 92.6048 30.738C92.6888 30.534 92.7308 30.33 92.7308 30.126C92.7308 29.922 92.6888 29.724 92.6048 29.532C92.5208 29.328 92.3648 29.16 92.1368 29.028C91.9208 28.896 91.5908 28.83 91.1468 28.83H89.2388V31.458ZM97.3812 39V26.4H105.661V28.848H100.225V31.134H104.815V33.582H100.225V36.552H105.661V39H97.3812ZM106.309 39L110.881 26.4H114.139L118.729 39H115.723L114.841 36.39H110.161L109.261 39H106.309ZM110.953 34.122H114.067L112.483 29.532L110.953 34.122ZM119.582 39V26.4H122.966L126.044 34.122L129.032 26.4H132.416V39H129.572V31.422L127.142 37.524H124.856L122.426 31.404V39H119.582ZM134.102 39V26.4H142.382V28.848H136.946V31.134H141.536V33.582H136.946V36.552H142.382V39H134.102ZM143.84 39V26.4H148.646C149.51 26.4 150.272 26.55 150.932 26.85C151.592 27.15 152.108 27.582 152.48 28.146C152.852 28.698 153.038 29.358 153.038 30.126C153.038 30.966 152.81 31.668 152.354 32.232C151.898 32.796 151.268 33.198 150.464 33.438L153.902 39H150.626L147.62 33.87H146.684V39H143.84ZM146.684 31.458H148.592C149.036 31.458 149.366 31.392 149.582 31.26C149.81 31.116 149.966 30.942 150.05 30.738C150.134 30.534 150.176 30.33 150.176 30.126C150.176 29.922 150.134 29.724 150.05 29.532C149.966 29.328 149.81 29.16 149.582 29.028C149.366 28.896 149.036 28.83 148.592 28.83H146.684V31.458Z" fill="#131317"/>
<mask id="mask0_15_1582" style="mask-type:luminance" maskUnits="userSpaceOnUse" x="0" y="0" width="45" height="49">
<path d="M44.854 0.114746H0.332764V48.639H44.854V0.114746Z" fill="white"/>
</mask>
<g mask="url(#mask0_15_1582)">
<path d="M25.2264 42.9303C25.2264 39.7775 22.6544 37.2216 19.4817 37.2216C16.3091 37.2216 13.7371 39.7775 13.7371 42.9303C13.7371 46.0831 16.3091 48.639 19.4817 48.639C22.6544 48.639 25.2264 46.0831 25.2264 42.9303Z" fill="#5551FF"/>
<path d="M3.24617 5.93677C3.18966 6.64812 3.57273 7.87122 3.57273 7.87122L5.2208 10.3865L8.09338 14.2957L13.9341 22.5229C13.3161 15.7936 14.8404 14.2719 16.2766 14.2719L16.6089 6.98489C16.6089 6.98489 8.58723 5.98296 3.24617 5.93677Z" fill="#5551FF"/>
<path fill-rule="evenodd" clip-rule="evenodd" d="M44.0501 9.13726C43.8031 12.2476 41.0915 14.5782 37.9701 14.3861L8.09338 14.2957L5.2208 10.3866L3.57273 7.87125C3.57273 7.87125 3.18966 6.64815 3.24617 5.9368C3.41567 3.80263 5.12065 2.83235 7.34326 2.92193L37.6844 3.01368C38.0416 3.01368 38.3913 3.01368 38.7752 2.99703C41.9381 3.24511 44.2998 5.99422 44.0501 9.13726Z" fill="#5551FF"/>
<path d="M15.6365 14.3935C15.5251 14.4202 15.7756 14.3436 15.6365 14.3935C15.5131 14.4261 15.7598 14.3514 15.6365 14.3935C14.6811 14.7364 13.3959 16.6495 13.9353 22.5234C13.9353 22.5234 8.21488 15.6149 15.6365 14.3935Z" fill="#B3B1FF"/>
<path d="M15.6673 23.5294C15.6108 24.2408 15.994 25.4638 15.994 25.4638L17.6422 27.979L20.515 31.8881L25.5146 38.6174C25.1329 32.1116 27.0478 31.8881 28.4466 31.9278L29.0301 24.5768C29.0301 24.5768 21.0084 23.5753 15.6673 23.5294Z" fill="#5551FF"/>
<path fill-rule="evenodd" clip-rule="evenodd" d="M38.2233 26.7291C37.9764 29.8394 35.265 32.1702 32.1436 31.9782L20.515 31.8882L17.6422 27.9791L15.994 25.4639C15.994 25.4639 15.6108 24.2409 15.6673 23.5295C15.8367 21.3954 17.5417 20.425 19.7643 20.5144L32.3345 20.6433C32.7083 20.6433 32.5953 20.6433 32.9482 20.6433C36.1111 20.8912 38.4728 23.5861 38.2233 26.7291Z" fill="#5551FF"/>
<path d="M28.2081 31.9091C28.0054 32.1117 25.1624 30.9545 25.5146 38.6175C25.5146 38.6175 20.296 31.7661 28.2081 31.9091Z" fill="#B3B1FF"/>
</g>
</svg>
